<svg xmlns="http://www.w3.org/2000/svg" width="112" height="148" viewBox="0 0 112 148" fill="none">
  <path d="M34.3463 139.854L43.4628 148L40.0201 141.189C34.5889 130.443 31.7613 118.595 31.7613 106.581V67.9349C31.7613 64.559 32.3114 61.2053 33.3906 58.0026C36.4108 49.0399 44.8897 42.9944 54.4402 42.9944H57.5598C67.1103 42.9944 75.5893 49.0399 78.6094 58.0026C79.6886 61.2053 80.2387 64.559 80.2387 67.9349V106.581C80.2387 118.595 77.4111 130.443 71.9799 141.189L68.5372 148L77.6537 139.854C88.6248 130.052 96.5634 117.375 100.55 103.292L112 62.838H106.149V55.047C106.149 40.4476 100.286 26.4462 89.8507 16.1229L85.9633 12.2774C78.0166 4.41632 67.2385 0 56.0001 0C44.7616 0 33.9834 4.41639 26.0365 12.2776L22.1493 16.1229C11.7135 26.4462 5.85076 40.4476 5.85076 55.047V62.838H0L11.4505 103.292C15.4366 117.375 23.3752 130.052 34.3463 139.854Z" fill="url(#paint0_linear_95_574)"/>
  <defs>
    <linearGradient id="paint0_linear_95_574" x1="56" y1="0" x2="56" y2="148" gradientUnits="userSpaceOnUse">
      <stop stop-color="white" stop-opacity="0"/>
      <stop offset="1" stop-color="white"/>
    </linearGradient>
  </defs>
</svg>