<svg xmlns="http://www.w3.org/2000/svg" width="140" height="39" viewBox="0 0 140 39" fill="none">
  <g clip-path="url(#clip0_508_41)">
    <path d="M62.2542 26.0729C61.7416 26.6077 61.2099 27.0871 60.6593 27.5112C60.1087 27.9353 59.5011 28.3041 58.8365 28.6176C58.1909 28.9126 57.4789 29.1339 56.7004 29.2814C55.9219 29.4474 55.0485 29.5304 54.0802 29.5304C52.6181 29.5304 51.2605 29.2722 50.0074 28.7559C48.7542 28.2396 47.6719 27.5389 46.7605 26.6538C45.8491 25.7502 45.1371 24.6899 44.6245 23.4729C44.1118 22.2559 43.8555 20.9559 43.8555 19.5729V19.5176C43.8555 18.1346 44.1118 16.8438 44.6245 15.6452C45.1371 14.4282 45.8491 13.3679 46.7605 12.4644C47.6719 11.5424 48.7637 10.8233 50.0359 10.3069C51.308 9.7722 52.7131 9.50482 54.2511 9.50482C55.1814 9.50482 56.0264 9.57858 56.7859 9.7261C57.5644 9.87362 58.2669 10.0765 58.8935 10.3346C59.5201 10.5928 60.0992 10.9062 60.6308 11.275C61.1625 11.6438 61.6561 12.0495 62.1118 12.4921L59.3207 15.6176C58.5422 14.9353 57.7447 14.4006 56.9283 14.0133C56.1308 13.6261 55.2289 13.4325 54.2226 13.4325C53.3871 13.4325 52.6086 13.5892 51.8871 13.9027C51.1846 14.2162 50.577 14.6495 50.0643 15.2027C49.5517 15.7559 49.1529 16.4013 48.8681 17.1389C48.5833 17.858 48.4409 18.6325 48.4409 19.4623V19.5176C48.4409 20.3474 48.5833 21.1311 48.8681 21.8687C49.1529 22.6062 49.5422 23.2516 50.0359 23.8048C50.5485 24.358 51.1561 24.8006 51.8586 25.1325C52.5802 25.446 53.3681 25.6027 54.2226 25.6027C55.3618 25.6027 56.3207 25.3999 57.0992 24.9942C57.8966 24.5885 58.6846 24.0353 59.4631 23.3346L62.2542 26.0729Z" fill="white"/>
    <path d="M81.0028 29.1984H75.8762L71.604 23.0027H68.1578V29.1984H63.7717V9.83674H72.8857C75.2591 9.83674 77.1009 10.3991 78.411 11.524C79.7401 12.6488 80.4047 14.2162 80.4047 16.2261V16.2814C80.4047 17.8488 80.0059 19.1304 79.2085 20.1261C78.43 21.1034 77.4047 21.8226 76.1325 22.2835L81.0028 29.1984ZM75.9616 16.5027V16.4474C75.9616 15.5254 75.6578 14.8339 75.0502 14.3729C74.4426 13.9119 73.5977 13.6814 72.5154 13.6814H68.1578V19.241H72.6009C73.6831 19.241 74.5091 18.9921 75.0787 18.4942C75.6673 17.9963 75.9616 17.3325 75.9616 16.5027Z" fill="white"/>
    <path d="M97.5405 29.1984H82.3601V9.83674H97.3981V13.6261H86.7177V17.5538H96.1164V21.3431H86.7177V25.4091H97.5405V29.1984Z" fill="white"/>
    <path d="M119.753 19.5176C119.753 20.9006 119.488 22.2006 118.956 23.4176C118.424 24.6162 117.684 25.6765 116.734 26.5984C115.804 27.502 114.684 28.2211 113.374 28.7559C112.083 29.2722 110.668 29.5304 109.13 29.5304C107.592 29.5304 106.178 29.2722 104.886 28.7559C103.595 28.2211 102.475 27.5112 101.526 26.6261C100.595 25.7226 99.8642 24.6715 99.3326 23.4729C98.8199 22.2559 98.5636 20.9559 98.5636 19.5729V19.5176C98.5636 18.1346 98.8294 16.8438 99.361 15.6452C99.8927 14.4282 100.624 13.3679 101.554 12.4644C102.503 11.5424 103.624 10.8233 104.915 10.3069C106.225 9.7722 107.649 9.50482 109.187 9.50482C110.725 9.50482 112.14 9.7722 113.431 10.3069C114.722 10.8233 115.833 11.5332 116.763 12.4367C117.712 13.3218 118.443 14.3729 118.956 15.5899C119.488 16.7885 119.753 18.0793 119.753 19.4623V19.5176ZM115.168 19.5729V19.5176C115.168 18.6878 115.016 17.9041 114.712 17.1665C114.428 16.4289 114.01 15.7835 113.459 15.2304C112.928 14.6772 112.291 14.2438 111.551 13.9304C110.81 13.5984 110.003 13.4325 109.13 13.4325C108.238 13.4325 107.421 13.5892 106.681 13.9027C105.959 14.2162 105.333 14.6495 104.801 15.2027C104.288 15.7559 103.88 16.4013 103.576 17.1389C103.291 17.858 103.149 18.6325 103.149 19.4623V19.5176C103.149 20.3474 103.291 21.1311 103.576 21.8687C103.88 22.6062 104.298 23.2516 104.829 23.8048C105.38 24.358 106.016 24.8006 106.738 25.1325C107.478 25.446 108.295 25.6027 109.187 25.6027C110.06 25.6027 110.867 25.446 111.608 25.1325C112.348 24.819 112.975 24.3857 113.488 23.8325C114.019 23.2793 114.428 22.6431 114.712 21.924C115.016 21.1864 115.168 20.4027 115.168 19.5729Z" fill="white"/>
    <path d="M139.366 29.1984H135.635L125.98 16.8899V29.1984H121.651V9.83674H125.695L135.037 21.758V9.83674H139.366V29.1984Z" fill="white"/>
    <path d="M9.828 36.8535L12.4366 39L11.4515 37.2052C9.89741 34.3736 9.08832 31.2513 9.08832 28.0855V17.9018C9.08832 17.0122 9.24574 16.1284 9.55454 15.2845C10.4187 12.9227 12.845 11.3296 15.5778 11.3296H16.4704C19.2032 11.3296 21.6295 12.9227 22.4936 15.2845C22.8024 16.1284 22.9599 17.0122 22.9599 17.9018V28.0855C22.9599 31.2513 22.1508 34.3736 20.5967 37.2052L19.6115 39L22.2202 36.8535C25.3595 34.2704 27.6311 30.9298 28.7717 27.2188L32.0482 16.5587H30.374V14.5056C30.374 10.6585 28.6964 6.96894 25.7103 4.2486L24.5979 3.23526C22.324 1.16376 19.2399 0 16.0241 0C12.8083 0 9.72415 1.16378 7.4502 3.23531L6.3379 4.2486C3.35176 6.96894 1.67416 10.6585 1.67416 14.5056V16.5587H0L3.27649 27.2188C4.41711 30.9298 6.68869 34.2704 9.828 36.8535Z" fill="white"/>
  </g>
  <defs>
    <clipPath id="clip0_508_41">
      <rect width="140" height="39" fill="white"/>
    </clipPath>
  </defs>
</svg>