<svg xmlns="http://www.w3.org/2000/svg" width="26" height="26" viewBox="0 0 26 26" fill="none">
  <g clip-path="url(#clip0_47_91)">
    <path fill-rule="evenodd" clip-rule="evenodd" d="M10.0208 20.0416C15.5552 20.0416 20.0417 15.5552 20.0417 10.0208C20.0417 9.68774 20.0254 9.35846 19.9937 9.03373C18.813 8.34982 17.4418 7.95832 15.9792 7.95832C11.5494 7.95832 7.95834 11.5494 7.95834 15.9791C7.95834 17.4418 8.34984 18.813 9.03375 19.9936C9.35849 20.0254 9.68777 20.0416 10.0208 20.0416ZM6.5688 19.4312C6.1739 18.355 5.95834 17.1922 5.95834 15.9791C5.95834 10.4448 10.4448 5.95832 15.9792 5.95832C17.1923 5.95832 18.355 6.17389 19.4312 6.56879C18.0245 2.73522 14.3421 0 10.0208 0C4.48648 0 0 4.48647 0 10.0208C0 14.3421 2.73522 18.0245 6.5688 19.4312Z" fill="white"/>
    <path fill-rule="evenodd" clip-rule="evenodd" d="M9.03331 19.9937C8.17532 19.9098 7.34907 19.7177 6.56836 19.4312C7.97507 23.2648 11.6575 26 15.9787 26C21.5131 26 25.9996 21.5135 25.9996 15.9792C25.9996 11.658 23.2644 7.97555 19.4308 6.56885C19.7173 7.34955 19.9094 8.17581 19.9932 9.03379C22.3884 10.4212 23.9996 13.0121 23.9996 15.9792C23.9996 20.409 20.4085 24 15.9787 24C13.0116 24 10.4207 22.3889 9.03331 19.9937Z" fill="white"/>
  </g>
  <defs>
    <clipPath id="clip0_47_91">
      <rect width="26" height="26" fill="white"/>
    </clipPath>
  </defs>
</svg>