<svg xmlns="http://www.w3.org/2000/svg" width="26" height="26" viewBox="0 0 26 26" fill="none">
  <path d="M24.8737 1.32566C24.864 1.27824 24.8409 1.23459 24.8072 1.19983C24.7735 1.16507 24.7306 1.14064 24.6836 1.12941C21.5458 0.36156 14.2959 3.09783 10.368 7.02769C9.66742 7.72324 9.02874 8.47857 8.45921 9.28512C7.24795 9.17788 6.03668 9.26743 5.00434 9.71784C2.09162 11.001 1.24357 14.3491 1.00732 15.7893C0.993916 15.8682 0.998971 15.949 1.02208 16.0256C1.0452 16.1021 1.08574 16.1722 1.14052 16.2304C1.19529 16.2887 1.26282 16.3333 1.33778 16.361C1.41274 16.3887 1.49308 16.3986 1.5725 16.3899L6.2499 15.8735C6.25324 16.2265 6.27451 16.579 6.31365 16.9298C6.33718 17.1734 6.44523 17.4011 6.61901 17.5733L8.43028 19.3819C8.60247 19.5556 8.82984 19.6637 9.07315 19.6875C9.42167 19.7266 9.77195 19.7479 10.1226 19.7514L9.60941 24.4271C9.60085 24.5066 9.6108 24.5869 9.63847 24.6619C9.66615 24.7369 9.7108 24.8044 9.76893 24.8592C9.82706 24.914 9.89708 24.9546 9.9735 24.9778C10.0499 25.0009 10.1307 25.0061 10.2094 24.9928C11.6457 24.7622 14.9966 23.9134 16.2711 20.998C16.7211 19.9648 16.8133 18.7583 16.7093 17.5518C17.5171 16.9818 18.2737 16.3423 18.9706 15.6408C22.9109 11.7168 25.6291 4.62226 24.8737 1.32566ZM15.0395 10.9597C14.6797 10.5998 14.4346 10.1412 14.3353 9.6419C14.2359 9.14258 14.2867 8.62499 14.4813 8.1546C14.6759 7.6842 15.0055 7.28213 15.4284 6.99924C15.8513 6.71635 16.3485 6.56536 16.8572 6.56536C17.3659 6.56536 17.8631 6.71635 18.286 6.99924C18.7089 7.28213 19.0385 7.6842 19.2331 8.1546C19.4277 8.62499 19.4785 9.14258 19.3791 9.6419C19.2798 10.1412 19.0347 10.5998 18.6749 10.9597C18.4363 11.1988 18.153 11.3886 17.8411 11.518C17.5292 11.6474 17.1948 11.7141 16.8572 11.7141C16.5195 11.7141 16.1852 11.6474 15.8733 11.518C15.5614 11.3886 15.2781 11.1988 15.0395 10.9597Z" fill="white"/>
  <path d="M8.58339 20.4688C8.28375 20.7691 7.80312 20.8861 7.22461 20.9862C5.92488 21.2077 4.77716 20.0844 5.01064 18.7702C5.09977 18.272 5.36333 17.5737 5.52736 17.4096C5.56322 17.3744 5.58708 17.3289 5.59557 17.2794C5.60406 17.2299 5.59673 17.1789 5.57464 17.1338C5.55254 17.0887 5.5168 17.0517 5.47249 17.0281C5.42817 17.0045 5.37754 16.9954 5.32778 17.0022C4.60096 17.0911 3.92479 17.4207 3.4069 17.9384C2.12139 19.2252 2 24 2 24C2 24 6.77679 23.8786 8.0623 22.5918C8.58156 22.0743 8.9115 21.3969 8.99895 20.669C9.01919 20.4404 8.74087 20.3042 8.58339 20.4688Z" fill="white"/>
</svg>