<svg xmlns="http://www.w3.org/2000/svg" width="26" height="26" viewBox="0 0 26 26" fill="none">
  <path d="M26 13C26.0002 14.1866 25.6313 15.3467 24.94 16.3334C24.2487 17.3201 23.2661 18.0892 22.1164 18.5433C20.9667 18.9974 19.7016 19.1162 18.4812 18.8847C17.2607 18.6531 16.1396 18.0816 15.2598 17.2425L15.2084 17.1895L8.9318 10.4313C8.40115 9.93456 7.72847 9.59833 6.99816 9.46481C6.26785 9.3313 5.51246 9.40645 4.82678 9.68083C4.1411 9.95522 3.55568 10.4166 3.14398 11.0071C2.73229 11.5976 2.51266 12.2909 2.51266 13C2.51266 13.7091 2.73229 14.4024 3.14398 14.9929C3.55568 15.5834 4.1411 16.0448 4.82678 16.3192C5.51246 16.5935 6.26785 16.6687 6.99816 16.5352C7.72847 16.4017 8.40115 16.0654 8.9318 15.5687L9.25475 15.2207C9.36429 15.1026 9.49716 15.0061 9.64578 14.9369C9.79441 14.8677 9.95587 14.8271 10.121 14.8174C10.286 14.8077 10.4515 14.8291 10.6079 14.8804C10.7643 14.9316 10.9086 15.0118 11.0326 15.1162C11.1565 15.2207 11.2576 15.3474 11.3302 15.4891C11.4028 15.6309 11.4454 15.7848 11.4555 15.9423C11.4657 16.0997 11.4433 16.2575 11.3895 16.4066C11.3357 16.5558 11.2517 16.6934 11.1421 16.8115L10.7909 17.1895L10.7395 17.2425C9.85959 18.0814 8.7386 18.6527 7.51824 18.8841C6.29788 19.1155 5.03297 18.9966 3.88346 18.5425C2.73394 18.0884 1.75144 17.3195 1.0602 16.3329C0.368949 15.3464 0 14.1865 0 13C0 11.8135 0.368949 10.6536 1.0602 9.66708C1.75144 8.68053 2.73394 7.91159 3.88346 7.45749C5.03297 7.00339 6.29788 6.88452 7.51824 7.11592C8.7386 7.34732 9.85959 7.9186 10.7395 8.75751L10.7909 8.8105L17.0675 15.5687C17.5981 16.0654 18.2708 16.4017 19.0011 16.5352C19.7314 16.6687 20.4868 16.5935 21.1725 16.3192C21.8581 16.0448 22.4436 15.5834 22.8553 14.9929C23.267 14.4024 23.4866 13.7091 23.4866 13C23.4866 12.2909 23.267 11.5976 22.8553 11.0071C22.4436 10.4166 21.8581 9.95522 21.1725 9.68083C20.4868 9.40645 19.7314 9.3313 19.0011 9.46481C18.2708 9.59833 17.5981 9.93456 17.0675 10.4313L16.7445 10.7793C16.635 10.8974 16.5021 10.9939 16.3535 11.0631C16.2048 11.1323 16.0434 11.1729 15.8783 11.1826C15.7132 11.1923 15.5477 11.1709 15.3913 11.1196C15.2349 11.0684 15.0906 10.9882 14.9667 10.8838C14.8428 10.7793 14.7416 10.6526 14.6691 10.5109C14.5965 10.3691 14.5539 10.2152 14.5437 10.0577C14.5335 9.90032 14.556 9.74253 14.6098 9.59338C14.6635 9.44423 14.7476 9.30663 14.8571 9.18846L15.2084 8.8105L15.2598 8.75751C16.1396 7.91835 17.2607 7.34686 18.4812 7.11532C19.7016 6.88377 20.9667 7.00258 22.1164 7.45671C23.2661 7.91084 24.2487 8.67989 24.94 9.6666C25.6313 10.6533 26.0002 11.8134 26 13Z" fill="white"/>
</svg>